<svg width="200" height="200" viewBox="0 0 200 200" xmlns="http://www.w3.org/2000/svg">
  <!-- Icon-only version (no text) for small spaces -->
  <defs>
    <linearGradient id="badgeGradientIcon" x1="0%" y1="0%" x2="100%" y2="100%">
      <stop offset="0%" style="stop-color:#1E293B;stop-opacity:1" />
      <stop offset="100%" style="stop-color:#334155;stop-opacity:1" />
    </linearGradient>
    <linearGradient id="textGradientIcon" x1="0%" y1="0%" x2="100%" y2="0%">
      <stop offset="0%" style="stop-color:#3B82F6;stop-opacity:1" />
      <stop offset="100%" style="stop-color:#8B5CF6;stop-opacity:1" />
    </linearGradient>
  </defs>
  
  <!-- Hexagonal Badge -->
  <polygon points="100,20 160,57.5 160,132.5 100,170 40,132.5 40,57.5" 
           fill="url(#badgeGradientIcon)" 
           stroke="#3B82F6" 
           stroke-width="4"/>
  
  <!-- Shield Icon (Left) -->
  <g transform="translate(60, 65)">
    <path d="M 10,0 L 0,0 L 0,25 Q 0,35 10,42 Q 20,35 20,25 L 20,0 Z" 
          fill="#10B981" 
          opacity="0.9"/>
    <path d="M 10,5 L 5,5 L 5,25 Q 5,30 10,35 Q 15,30 15,25 L 15,5 Z" 
          fill="#34D399" 
          opacity="0.6"/>
  </g>
  
  <!-- Gear Icon (Right) -->
  <g transform="translate(130, 82)">
    <path d="M 0,-15 L 3,-12 L 3,-10 Q 10,-12 15,0 L 12,3 L 10,3 Q 12,10 0,15 L -3,12 L -3,10 Q -10,12 -15,0 L -12,-3 L -10,-3 Q -12,-10 0,-15 Z" 
          fill="none" 
          stroke="#3B82F6" 
          stroke-width="3"/>
    <circle cx="0" cy="0" r="6" fill="#3B82F6"/>
    <circle cx="0" cy="0" r="4" fill="#1E293B"/>
  </g>
  
  <!-- Large AG Monogram -->
  <text x="100" y="125" 
        font-family="Arial, sans-serif" 
        font-size="48" 
        font-weight="bold" 
        fill="url(#textGradientIcon)" 
        text-anchor="middle">AG</text>
</svg>
