<svg width="512" height="512" viewBox="0 0 512 512" xmlns="http://www.w3.org/2000/svg">
  <defs>
    <linearGradient id="badgeGrad512" x1="0%" y1="0%" x2="100%" y2="100%">
      <stop offset="0%" style="stop-color:#1E293B;stop-opacity:1" />
      <stop offset="100%" style="stop-color:#334155;stop-opacity:1" />
    </linearGradient>
    <linearGradient id="textGrad512" x1="0%" y1="0%" x2="100%" y2="0%">
      <stop offset="0%" style="stop-color:#3B82F6;stop-opacity:1" />
      <stop offset="100%" style="stop-color:#8B5CF6;stop-opacity:1" />
    </linearGradient>
    <linearGradient id="glowGrad512" x1="0%" y1="0%" x2="100%" y2="100%">
      <stop offset="0%" style="stop-color:#3B82F6;stop-opacity:0.3" />
      <stop offset="100%" style="stop-color:#8B5CF6;stop-opacity:0.1" />
    </linearGradient>
  </defs>
  
  <!-- Outer Glow -->
  <polygon points="256,13 446,121 446,338 256,446 66,338 66,121" 
           fill="url(#glowGrad512)" 
           opacity="0.5"/>
  
  <!-- Hexagonal Badge -->
  <polygon points="256,38 421,134 421,326 256,422 91,326 91,134" 
           fill="url(#badgeGrad512)" 
           stroke="#3B82F6" 
           stroke-width="8"/>
  
  <!-- Shield Icon -->
  <g transform="translate(141, 128)">
    <path d="M 26,0 L 0,0 L 0,52 Q 0,78 26,91 Q 52,78 52,52 L 52,0 Z" 
          fill="#10B981" 
          opacity="0.9"/>
    <path d="M 26,13 L 13,13 L 13,52 Q 13,65 26,73 Q 39,65 39,52 L 39,13 Z" 
          fill="#34D399" 
          opacity="0.6"/>
  </g>
  
  <!-- Gear Icon -->
  <g transform="translate(333, 159)">
    <path d="M 0,-31 L 5,-26 L 5,-21 Q 21,-26 31,0 L 26,5 L 21,5 Q 26,21 0,31 L -5,26 L -5,21 Q -21,26 -31,0 L -26,-5 L -21,-5 Q -26,-21 0,-31 Z" 
          fill="none" 
          stroke="#3B82F6" 
          stroke-width="6.5"/>
    <circle cx="0" cy="0" r="13" fill="#3B82F6"/>
    <circle cx="0" cy="0" r="8" fill="#1E293B"/>
  </g>
  
  <!-- AG Monogram -->
  <text x="256" y="295" 
        font-family="Arial, sans-serif" 
        font-size="104" 
        font-weight="bold" 
        fill="url(#textGrad512)" 
        text-anchor="middle">AG</text>
  
  <!-- AutoGuard Text -->
  <text x="256" y="370" 
        font-family="Arial, sans-serif" 
        font-size="42" 
        font-weight="600" 
        fill="#3B82F6" 
        text-anchor="middle">AutoGuard</text>
  
  <!-- Tagline -->
  <text x="256" y="410" 
        font-family="Arial, sans-serif" 
        font-size="20" 
        fill="#94A3B8" 
        text-anchor="middle">Infrastructure Guardian</text>
</svg>
