<svg width="192" height="192" viewBox="0 0 192 192" xmlns="http://www.w3.org/2000/svg">
  <defs>
    <linearGradient id="badgeGrad192" x1="0%" y1="0%" x2="100%" y2="100%">
      <stop offset="0%" style="stop-color:#1E293B;stop-opacity:1" />
      <stop offset="100%" style="stop-color:#334155;stop-opacity:1" />
    </linearGradient>
    <linearGradient id="textGrad192" x1="0%" y1="0%" x2="100%" y2="0%">
      <stop offset="0%" style="stop-color:#3B82F6;stop-opacity:1" />
      <stop offset="100%" style="stop-color:#8B5CF6;stop-opacity:1" />
    </linearGradient>
  </defs>
  
  <!-- Hexagonal Badge -->
  <polygon points="96,14 158,50 158,122 96,158 34,122 34,50" 
           fill="url(#badgeGrad192)" 
           stroke="#3B82F6" 
           stroke-width="3"/>
  
  <!-- Shield Icon -->
  <g transform="translate(53, 48)">
    <path d="M 10,0 L 0,0 L 0,20 Q 0,30 10,35 Q 20,30 20,20 L 20,0 Z" 
          fill="#10B981" 
          opacity="0.9"/>
    <path d="M 10,5 L 5,5 L 5,20 Q 5,25 10,28 Q 15,25 15,20 L 15,5 Z" 
          fill="#34D399" 
          opacity="0.6"/>
  </g>
  
  <!-- Gear Icon -->
  <g transform="translate(125, 60)">
    <path d="M 0,-12 L 2,-10 L 2,-8 Q 8,-10 12,0 L 10,2 L 8,2 Q 10,8 0,12 L -2,10 L -2,8 Q -8,10 -12,0 L -10,-2 L -8,-2 Q -10,-8 0,-12 Z" 
          fill="none" 
          stroke="#3B82F6" 
          stroke-width="2.5"/>
    <circle cx="0" cy="0" r="5" fill="#3B82F6"/>
    <circle cx="0" cy="0" r="3" fill="#1E293B"/>
  </g>
  
  <!-- AG Monogram -->
  <text x="96" y="110" 
        font-family="Arial, sans-serif" 
        font-size="38" 
        font-weight="bold" 
        fill="url(#textGrad192)" 
        text-anchor="middle">AG</text>
</svg>
